<?xml version="1.0" encoding="UTF-8" standalone="no"?>
<!-- Created with Inkscape (http://www.inkscape.org/) -->

<svg
   width="210mm"
   height="297mm"
   viewBox="0 0 210 297"
   version="1.1"
   id="svg5"
   inkscape:version="1.3.2 (091e20e, 2023-11-25, custom)"
   sodipodi:docname="drawing.svg"
   xmlns:inkscape="http://www.inkscape.org/namespaces/inkscape"
   xmlns:sodipodi="http://sodipodi.sourceforge.net/DTD/sodipodi-0.dtd"
   xmlns="http://www.w3.org/2000/svg"
   xmlns:svg="http://www.w3.org/2000/svg">
  <sodipodi:namedview
     id="namedview7"
     pagecolor="#ffffff"
     bordercolor="#eeeeee"
     borderopacity="1"
     inkscape:showpageshadow="0"
     inkscape:pageopacity="0"
     inkscape:pagecheckerboard="0"
     inkscape:deskcolor="#505050"
     inkscape:document-units="mm"
     showgrid="false"
     inkscape:zoom="3.5527217"
     inkscape:cx="50.665381"
     inkscape:cy="1047.5068"
     inkscape:window-width="1858"
     inkscape:window-height="1057"
     inkscape:window-x="54"
     inkscape:window-y="-8"
     inkscape:window-maximized="1"
     inkscape:current-layer="layer1" />
  <defs
     id="defs2" />
  <g
     inkscape:label="Layer 1"
     inkscape:groupmode="layer"
     id="layer1">
    <path
       id="path7-1"
       style="fill:#ffffff;stroke:#ff0000;stroke-width:0.165;stroke-linejoin:bevel"
       d="m 6.0371115,268.8 a 1.0371108,1.0371108 0 0 1 -1.037111,1.03711 1.0371108,1.0371108 0 0 1 -1.037111,-1.03711 1.0371108,1.0371108 0 0 1 1.037111,-1.03711 1.0371108,1.0371108 0 0 1 1.037111,1.03711 z m 0,21.4 a 1.0371108,1.0371108 0 0 1 -1.037111,1.03711 1.0371108,1.0371108 0 0 1 -1.037111,-1.03711 1.0371108,1.0371108 0 0 1 1.037111,-1.03711 1.0371108,1.0371108 0 0 1 1.037111,1.03711 z m 27.0000025,0 a 1.0371108,1.0371108 0 0 1 -1.037111,1.03711 1.0371108,1.0371108 0 0 1 -1.037111,-1.03711 1.0371108,1.0371108 0 0 1 1.037111,-1.03711 1.0371108,1.0371108 0 0 1 1.037111,1.03711 z m 1.712889,0 a 2.75,2.75 0 0 1 -2.75,2.75 2.75,2.75 0 0 1 -2.75,-2.75 2.75,2.75 0 0 1 2.75,-2.75 2.75,2.75 0 0 1 2.75,2.75 z m -27.0000025,0 a 2.75,2.75 0 0 1 -2.75,2.75 2.75,2.75 0 0 1 -2.75,-2.75 2.75,2.75 0 0 1 2.75,-2.75 2.75,2.75 0 0 1 2.75,2.75 z M 32.000114,266.04991 a 2.75,2.75 0 0 0 -2.75022,2.75022 2.75,2.75 0 0 0 2.75022,2.7497 2.75,2.75 0 0 0 2.749703,-2.7497 2.75,2.75 0 0 0 -2.749703,-2.75022 z m 0,1.71307 a 1.0371108,1.0371108 0 0 1 1.037146,1.03715 1.0371108,1.0371108 0 0 1 -1.037146,1.03715 1.0371108,1.0371108 0 0 1 -1.037146,-1.03715 1.0371108,1.0371108 0 0 1 1.037146,-1.03715 z M 7.7500005,268.8 a 2.75,2.75 0 0 1 -2.75,2.75 2.75,2.75 0 0 1 -2.75,-2.75 2.75,2.75 0 0 1 2.75,-2.75 2.75,2.75 0 0 1 2.75,2.75 z m -4.4481954,8.74999 H 33.698201 c 0.3324,0 0.6,0.2676 0.6,0.6 v 2.7 c 0,0.3324 -0.2676,0.6 -0.6,0.6 H 3.3018051 c -0.3324,0 -0.6,-0.2676 -0.6,-0.6 v -2.7 c 0,-0.3324 0.2676,-0.6 0.6,-0.6 z M 0,262 h 37 v 35 H 0 Z" />
  </g>
</svg>
